<?xml version="1.0" standalone="no"?>
<!DOCTYPE svg PUBLIC "-//W3C//DTD SVG 20010904//EN"
 "http://www.w3.org/TR/2001/REC-SVG-20010904/DTD/svg10.dtd">
<svg version="1.0" xmlns="http://www.w3.org/2000/svg"
 width="185.000000pt" height="221.000000pt" viewBox="0 0 185.000000 221.000000"
 preserveAspectRatio="xMidYMid meet">

<g transform="translate(0.000000,221.000000) scale(0.100000,-0.100000)"
fill="#000000" stroke="none">
<path d="M860 1835 c0 -220 -2 -265 -14 -265 -19 0 -107 67 -140 107 -56 66
-80 139 -86 258 l-5 110 -119 3 -119 3 6 -118 c8 -192 64 -329 182 -447 51
-51 102 -86 223 -155 l72 -42 0 -220 0 -221 -47 27 c-258 149 -359 214 -399
258 -63 70 -86 139 -92 270 l-4 107 -121 0 -120 0 7 -108 c12 -206 63 -331
185 -452 66 -65 109 -94 334 -224 l257 -149 0 -184 0 -183 115 0 115 0 2 316
3 317 172 96 c277 155 341 211 413 366 45 94 58 151 66 285 l7 100 -120 0
-121 0 -4 -107 c-3 -96 -7 -116 -35 -175 -18 -38 -51 -86 -76 -110 -39 -39
-272 -178 -297 -178 -7 0 -10 169 -10 490 l0 490 -115 0 -115 0 0 -265z"/>
</g>
</svg>
