<svg id="Capa_1" data-name="Capa 1" xmlns="http://www.w3.org/2000/svg" viewBox="0 0 800 800"><defs><style>.cls-1{fill:#fff;}</style></defs><rect width="800" height="800"/><path class="cls-1" d="M283.7,618.9c-.1-11.8,1.2-81.5,2.2-94.5,1.7-21.8-4.3-41.9-13.9-61.1s-23.2-37.4-36.8-54.7c-10.6-13.6-21.2-27.2-31.4-41-37.5-50.6-27.2-105.6,7-145.2A185.1,185.1,0,0,1,228,205.3a39.1,39.1,0,0,1,17.6-8.8,12.4,12.4,0,0,1,11.1,2.2c19.9,14.7,41.3,27,62.7,39.3s40.7,14.6,63.4,8.8c43.2-11.1,82.5-.3,118.6,24.3,10,6.8,19.5,14.3,27.5,23.3a6.1,6.1,0,0,0,4.2,2.3c8.9.5,15.5,5.4,21.1,11.9a93,93,0,0,1,13.6,21.5c15.7,33.1,30.5,66.8,46.9,99.6,6.8,13.7,10.9,28.3,8.8,43.9-2.6,19.7-13.4,33.2-31.9,40.2-4.3,1.7-4.9,3.4-4.2,7.6,3.5,20.5,4.9,98,6.7,118.6.6,8.2-3.9,13.1-11.8,13.7s-11.9-3.2-12.8-11.8c-2.2-20-3.7-96.8-3.9-117-.1-4.3-1.2-5.7-5.6-5.3a101.6,101.6,0,0,1-15.6.1c-25.6-1.6-51-.9-76.1,5.1a57,57,0,0,1-22.9.5c-22-3.8-33.5-21.9-28.8-44.9a67.4,67.4,0,0,1,13.3-28.5c19.2-24.6,35.8-51,54.6-75.8,10.2-13.5,19.4-27.5,25-43.6a24.4,24.4,0,0,1,5.7-9.5c3.3-3.2,7.2-4.3,11.4-2.3s6.3,5.3,5.9,10c-.8,10.8-4.3,20.7-9.3,30.1-8.1,15.4-19.1,28.6-30.8,41.4s-26.1,26.7-36.9,42c-7.2,10.1-13.1,20.8-15,33.2a35.5,35.5,0,0,0-.5,8.6c.5,8.8,4.1,12.3,13,12.3,11.9,0,23.4-3.2,35.1-5,21.2-3.3,42.3-.8,63.4.5,9.4.7,18.7.6,27.8-1.9,14.7-4.2,21.5-15.2,19.3-30.3a87.4,87.4,0,0,0-9.4-28.3c-15.8-29.3-27.6-60.3-39.5-91.2a116.8,116.8,0,0,0-4.9-11.5c-2.8-5.3-4-11.8-12.4-12.7-3.8-.4-7.3-4.4-10.8-7-20.3-14.8-40.9-29.3-65.5-36.2-22.3-6.3-44.7-8-67.5-1.4-28.1,8-55.1,3.9-80.7-10-9.6-5.3-19.1-10.8-28.6-16.4-2.9-1.7-4.4-2.1-7,1-13.1,16.2-25.9,17.8-43.1,5.5-2.7-2-3.5-1.4-5,1-15.9,27-19.3,54.4-3.5,82.7,7.2,12.9,16.5,24.4,25.7,35.9,19.1,23.9,38.2,47.7,51.6,75.4,11.1,23,19.5,46.8,17,73-1.9,19.8-5.2,96.2-10.4,115.4A89.8,89.8,0,0,1,300,649c-1.5,3.5-3.8,6.1-8,5.5s-6-3.2-6.9-7C282.8,638.5,283.3,629.4,283.7,618.9Z"/><path class="cls-1" d="M408.5,285.7c10.5-.1,18.2,6.6,20,17.5,1.4,8.6.8,17.3,2.3,25.9s-7.2,15.2-15.9,11.9-14.1-7-20.6-11.6c-9.8-7.1-13.4-16-10.4-25.7S397.7,285.8,408.5,285.7Z"/><path class="cls-1" d="M176.6,145.4v.8l-.7-.3.9-.4Z"/></svg>